<svg width="50" height="44" viewBox="0 0 50 44" fill="none" xmlns="http://www.w3.org/2000/svg" xmlns:xlink="http://www.w3.org/1999/xlink">
<path d="M45.483,42.75L28.424,27.525C27.07,28.492 25.513,29.257 23.753,29.821C21.993,30.385 20.12,30.667 18.134,30.667C13.215,30.667 9.052,29.146 5.646,26.104C2.239,23.062 0.535,19.347 0.533,14.958C0.531,10.57 2.236,6.854 5.646,3.813C9.056,0.771 13.218,-0.75 18.134,-0.75C23.05,-0.75 27.213,0.771 30.625,3.813C34.037,6.854 35.74,10.57 35.735,14.958C35.735,16.731 35.419,18.402 34.787,19.973C34.155,21.544 33.298,22.933 32.215,24.142L49.274,39.367L45.483,42.75ZM18.134,25.833C21.519,25.833 24.396,24.776 26.767,22.663C29.137,20.549 30.321,17.981 30.319,14.958C30.318,11.936 29.133,9.369 26.767,7.256C24.4,5.144 21.523,4.087 18.134,4.083C14.746,4.08 11.869,5.138 9.504,7.256C7.139,9.375 5.954,11.942 5.949,14.958C5.943,17.974 7.129,20.542 9.504,22.663C11.88,24.783 14.757,25.84 18.134,25.833Z" fill="#B48E5E"/>
</svg>
