<svg width="34" height="32" viewBox="0 0 34 32" fill="none" xmlns="http://www.w3.org/2000/svg" xmlns:xlink="http://www.w3.org/1999/xlink">
<path d="M15.291,0.541C15.465,0.242 15.715,-0.006 16.015,-0.178C16.315,-0.351 16.655,-0.441 17.001,-0.441C17.347,-0.441 17.687,-0.351 17.987,-0.178C18.287,-0.006 18.537,0.242 18.711,0.541L23.136,8.138L31.731,10C32.069,10.074 32.382,10.234 32.638,10.466C32.895,10.699 33.086,10.994 33.193,11.323C33.3,11.652 33.318,12.003 33.247,12.342C33.176,12.68 33.017,12.994 32.787,13.252L26.928,19.809L27.815,28.557C27.85,28.901 27.794,29.249 27.653,29.565C27.511,29.881 27.289,30.154 27.009,30.358C26.729,30.561 26.401,30.688 26.056,30.725C25.712,30.761 25.364,30.707 25.047,30.568L17.001,27.021L8.954,30.568C8.637,30.707 8.29,30.761 7.945,30.725C7.601,30.688 7.272,30.561 6.992,30.358C6.712,30.154 6.49,29.881 6.349,29.565C6.208,29.249 6.152,28.901 6.187,28.557L7.073,19.809L1.215,13.254C0.984,12.996 0.825,12.682 0.754,12.343C0.682,12.004 0.701,11.653 0.808,11.323C0.914,10.994 1.106,10.699 1.363,10.466C1.619,10.234 1.933,10.073 2.271,10L10.865,8.138L15.291,0.541Z" fill="#FFE500"/>
</svg>
