<svg width="84" height="68" viewBox="0 0 84 68" fill="none" xmlns="http://www.w3.org/2000/svg" xmlns:xlink="http://www.w3.org/1999/xlink">
<path d="M76.333,54.542C78.034,54.542 79.67,55.124 80.901,56.165C82.133,57.206 82.865,58.627 82.947,60.134C83.029,61.641 82.453,63.119 81.34,64.26C80.227,65.401 78.662,66.119 76.969,66.264L76.333,66.292L5.666,66.292C3.965,66.291 2.329,65.71 1.097,64.669C-0.134,63.627 -0.866,62.206 -0.948,60.699C-1.03,59.192 -0.455,57.715 0.658,56.574C1.771,55.432 3.337,54.715 5.03,54.569L5.666,54.542L76.333,54.542ZM76.333,27.125C78.09,27.125 79.775,27.744 81.017,28.846C82.26,29.948 82.958,31.442 82.958,33C82.958,34.558 82.26,36.053 81.017,37.154C79.775,38.256 78.09,38.875 76.333,38.875L5.666,38.875C3.909,38.875 2.224,38.256 0.981,37.154C-0.261,36.053 -0.959,34.558 -0.959,33C-0.959,31.442 -0.261,29.948 0.981,28.846C2.224,27.744 3.909,27.125 5.666,27.125L76.333,27.125ZM76.333,-0.292C78.09,-0.292 79.775,0.327 81.017,1.429C82.26,2.531 82.958,4.025 82.958,5.583C82.958,7.142 82.26,8.636 81.017,9.738C79.775,10.84 78.09,11.458 76.333,11.458L5.666,11.458C3.909,11.458 2.224,10.84 0.981,9.738C-0.261,8.636 -0.959,7.142 -0.959,5.583C-0.959,4.025 -0.261,2.531 0.981,1.429C2.224,0.327 3.909,-0.292 5.666,-0.292L76.333,-0.292Z" fill="#B48E5E"/>
</svg>
